<mxfile host="app.diagrams.net" modified="2021-09-27T12:47:35.283Z" agent="5.0 (Windows NT 10.0; Win64; x64) AppleWebKit/537.36 (KHTML, like Gecko) Chrome/94.0.4606.61 Safari/537.36" etag="Idyg3TdpbyPaS1WXxPwJ" version="15.3.5" type="github">
  <diagram name="Page-1" id="2cc2dc42-3aac-f2a9-1cec-7a8b7cbee084">
    <mxGraphModel dx="829" dy="466" grid="0" gridSize="10" guides="1" tooltips="1" connect="1" arrows="1" fold="1" page="1" pageScale="1" pageWidth="1169" pageHeight="827" background="#ffffff" math="0" shadow="0">
      <root>
        <mxCell id="0" />
        <mxCell id="1" parent="0" />
        <mxCell id="OI_sCRz20BsgHnKaaoa2-4" value="Request" style="rounded=0;whiteSpace=wrap;html=1;hachureGap=4;pointerEvents=0;fontSize=16;" vertex="1" parent="1">
          <mxGeometry x="800" y="70" width="200" height="60" as="geometry" />
        </mxCell>
        <mxCell id="OI_sCRz20BsgHnKaaoa2-7" value="&amp;nbsp; &amp;nbsp; &amp;nbsp; &amp;nbsp; Pra" style="rounded=1;arcSize=9;fillColor=#ffffff;strokeColor=#4C9AFF;html=1;strokeWidth=2;spacingLeft=5;fontColor=#000000;align=left;sketch=0;hachureGap=4;pointerEvents=0;fontFamily=Helvetica;fontSize=14;shadow=0;" vertex="1" parent="1">
          <mxGeometry x="110" y="270" width="230" height="33" as="geometry" />
        </mxCell>
        <mxCell id="OI_sCRz20BsgHnKaaoa2-8" value="" style="html=1;shadow=0;dashed=0;shape=mxgraph.atlassian.close;fillColor=#97A0AF;strokeColor=none;sketch=0;hachureGap=4;pointerEvents=0;fontFamily=Architects Daughter;fontSource=https%3A%2F%2Ffonts.googleapis.com%2Fcss%3Ffamily%3DArchitects%2BDaughter;fontSize=20;" vertex="1" parent="OI_sCRz20BsgHnKaaoa2-7">
          <mxGeometry x="1" y="0.5" width="14" height="14" relative="1" as="geometry">
            <mxPoint x="-28" y="-7" as="offset" />
          </mxGeometry>
        </mxCell>
        <mxCell id="OI_sCRz20BsgHnKaaoa2-32" value="" style="shape=mxgraph.signs.transportation.airplane_1;html=1;pointerEvents=1;fillColor=#596780;strokeColor=none;verticalLabelPosition=bottom;verticalAlign=top;align=center;hachureGap=4;shadow=0;labelBackgroundColor=none;sketch=0;fontFamily=Helvetica;fontSize=15;fontColor=none;" vertex="1" parent="OI_sCRz20BsgHnKaaoa2-7">
          <mxGeometry x="11" y="14" width="16.26" height="5.75" as="geometry" />
        </mxCell>
        <mxCell id="OI_sCRz20BsgHnKaaoa2-9" value="&lt;b&gt;&lt;font color=&quot;#596780&quot;&gt;SUGGESTIONS&lt;/font&gt;&lt;/b&gt;&lt;div&gt;&lt;br&gt;&lt;div&gt;&lt;b&gt;Pra&lt;/b&gt;gue&amp;nbsp;Vaclav Havel Airport&amp;nbsp;&lt;font color=&quot;#596780&quot;&gt;(PRG)&lt;/font&gt;&lt;/div&gt;&lt;br&gt;&lt;div&gt;New &lt;b&gt;Pra&lt;/b&gt;gue, Minnesota, USA&lt;/div&gt;&lt;div&gt;&lt;br&gt;&lt;/div&gt;&lt;b&gt;Pra&lt;/b&gt;gue, Oklahoma, USA&lt;div&gt;&lt;/div&gt;&lt;/div&gt;" style="html=1;rounded=1;fillColor=#ffffff;strokeColor=#DFE1E5;fontSize=12;align=left;fontColor=#000000;shadow=1;arcSize=1;whiteSpace=wrap;spacing=2;verticalAlign=top;fontStyle=0;spacingLeft=20;spacingTop=15;sketch=0;hachureGap=4;pointerEvents=0;fontFamily=Helvetica;" vertex="1" parent="1">
          <mxGeometry x="110" y="305" width="230" height="140" as="geometry" />
        </mxCell>
        <mxCell id="OI_sCRz20BsgHnKaaoa2-10" value="" style="rounded=0;fillColor=#000000;strokeColor=none;html=1;opacity=10;resizeWidth=1;sketch=1;hachureGap=4;pointerEvents=0;fontFamily=Architects Daughter;fontSource=https%3A%2F%2Ffonts.googleapis.com%2Fcss%3Ffamily%3DArchitects%2BDaughter;fontSize=20;" vertex="1" parent="OI_sCRz20BsgHnKaaoa2-9">
          <mxGeometry width="230" height="33" relative="1" as="geometry">
            <mxPoint y="40" as="offset" />
          </mxGeometry>
        </mxCell>
        <mxCell id="OI_sCRz20BsgHnKaaoa2-24" style="edgeStyle=none;orthogonalLoop=1;jettySize=auto;html=1;entryX=0;entryY=0.5;entryDx=0;entryDy=0;fontFamily=Helvetica;fontSize=14;fontColor=#333333;endArrow=open;startSize=14;endSize=14;sourcePerimeterSpacing=8;targetPerimeterSpacing=8;curved=1;" edge="1" parent="1" source="OI_sCRz20BsgHnKaaoa2-12" target="OI_sCRz20BsgHnKaaoa2-15">
          <mxGeometry relative="1" as="geometry">
            <Array as="points">
              <mxPoint x="160" y="90" />
            </Array>
          </mxGeometry>
        </mxCell>
        <mxCell id="OI_sCRz20BsgHnKaaoa2-12" value="Return leg" style="rounded=1;fillColor=#CCCCCC;strokeColor=none;html=1;fontColor=#596780;align=left;fontSize=14;spacingLeft=10;sketch=1;hachureGap=4;pointerEvents=0;fontFamily=Helvetica;shadow=0;" vertex="1" parent="1">
          <mxGeometry x="110" y="220" width="100" height="33" as="geometry" />
        </mxCell>
        <mxCell id="OI_sCRz20BsgHnKaaoa2-13" value="" style="shape=triangle;direction=south;fillColor=#596780;strokeColor=none;html=1;sketch=0;hachureGap=4;pointerEvents=0;fontFamily=Architects Daughter;fontSource=https%3A%2F%2Ffonts.googleapis.com%2Fcss%3Ffamily%3DArchitects%2BDaughter;fontSize=20;" vertex="1" parent="OI_sCRz20BsgHnKaaoa2-12">
          <mxGeometry x="1" y="0.5" width="12" height="6" relative="1" as="geometry">
            <mxPoint x="-20" as="offset" />
          </mxGeometry>
        </mxCell>
        <mxCell id="OI_sCRz20BsgHnKaaoa2-30" value="" style="shape=triangle;direction=south;fillColor=#596780;strokeColor=none;html=1;sketch=0;hachureGap=4;pointerEvents=0;fontFamily=Architects Daughter;fontSource=https%3A%2F%2Ffonts.googleapis.com%2Fcss%3Ffamily%3DArchitects%2BDaughter;fontSize=20;" vertex="1" parent="OI_sCRz20BsgHnKaaoa2-12">
          <mxGeometry x="1" y="0.5" width="12" height="6" relative="1" as="geometry">
            <mxPoint x="73" y="-3" as="offset" />
          </mxGeometry>
        </mxCell>
        <mxCell id="OI_sCRz20BsgHnKaaoa2-15" value="&lt;font style=&quot;font-size: 12px&quot;&gt;Return trip&lt;/font&gt;" style="rounded=1;fillColor=#D4E1F5;strokeColor=none;html=1;fontColor=#333333;align=left;fontSize=14;spacingLeft=10;sketch=0;hachureGap=4;pointerEvents=0;fontFamily=Helvetica;shadow=0;" vertex="1" parent="1">
          <mxGeometry x="290" y="20" width="100" height="33" as="geometry" />
        </mxCell>
        <mxCell id="OI_sCRz20BsgHnKaaoa2-16" value="" style="shape=triangle;direction=south;fillColor=#596780;strokeColor=none;html=1;sketch=0;hachureGap=4;pointerEvents=0;fontFamily=Helvetica;fontSize=20;fontColor=#ffffff;flipV=1;" vertex="1" parent="OI_sCRz20BsgHnKaaoa2-15">
          <mxGeometry x="1" y="0.5" width="12" height="6" relative="1" as="geometry">
            <mxPoint x="-20" y="-3" as="offset" />
          </mxGeometry>
        </mxCell>
        <mxCell id="OI_sCRz20BsgHnKaaoa2-17" value="" style="rounded=1;fillColor=#ffffff;strokeColor=#DFE1E5;shadow=1;html=1;arcSize=4;sketch=0;hachureGap=4;pointerEvents=0;fontFamily=Helvetica;fontSize=20;" vertex="1" parent="1">
          <mxGeometry x="290" y="56" width="110" height="117" as="geometry" />
        </mxCell>
        <mxCell id="OI_sCRz20BsgHnKaaoa2-18" value="Return trip" style="rounded=0;fillColor=#E6E6E6;strokeColor=none;shadow=0;html=1;align=left;fontSize=12;spacingLeft=10;fontColor=#333333;resizeWidth=1;sketch=1;hachureGap=4;pointerEvents=0;fontFamily=Helvetica;fillStyle=auto;" vertex="1" parent="OI_sCRz20BsgHnKaaoa2-17">
          <mxGeometry width="110" height="33" relative="1" as="geometry">
            <mxPoint y="6" as="offset" />
          </mxGeometry>
        </mxCell>
        <mxCell id="OI_sCRz20BsgHnKaaoa2-19" value="One way" style="rounded=0;fillColor=none;strokeColor=none;shadow=0;html=1;align=left;fontSize=12;spacingLeft=10;fontColor=#253858;resizeWidth=1;sketch=1;hachureGap=4;pointerEvents=0;fontFamily=Helvetica;" vertex="1" parent="OI_sCRz20BsgHnKaaoa2-17">
          <mxGeometry width="110" height="33" relative="1" as="geometry">
            <mxPoint y="39" as="offset" />
          </mxGeometry>
        </mxCell>
        <mxCell id="OI_sCRz20BsgHnKaaoa2-20" value="Multi-city" style="rounded=0;fillColor=none;strokeColor=none;shadow=0;html=1;align=left;fontSize=12;spacingLeft=10;fontColor=#253858;resizeWidth=1;sketch=1;hachureGap=4;pointerEvents=0;fontFamily=Helvetica;" vertex="1" parent="OI_sCRz20BsgHnKaaoa2-17">
          <mxGeometry width="110" height="33" relative="1" as="geometry">
            <mxPoint y="72" as="offset" />
          </mxGeometry>
        </mxCell>
        <mxCell id="OI_sCRz20BsgHnKaaoa2-25" value="&lt;font style=&quot;font-size: 15px&quot; color=&quot;#cccccc&quot;&gt;&amp;nbsp; &amp;nbsp; &amp;nbsp; &amp;nbsp; Where&lt;/font&gt;" style="rounded=1;arcSize=9;fillColor=#ffffff;strokeColor=#CCCCCC;html=1;strokeWidth=2;spacingLeft=5;fontColor=#000000;align=left;sketch=0;hachureGap=4;pointerEvents=0;fontFamily=Helvetica;fontSize=15;shadow=0;" vertex="1" parent="1">
          <mxGeometry x="386" y="270" width="230" height="33" as="geometry" />
        </mxCell>
        <mxCell id="OI_sCRz20BsgHnKaaoa2-27" value="" style="shape=image;verticalAlign=top;verticalLabelPosition=bottom;labelBackgroundColor=none;imageAspect=0;aspect=fixed;image=https://cdn1.iconfinder.com/data/icons/heroicons-ui/24/switch-horizontal-512.png;hachureGap=4;pointerEvents=0;shadow=0;sketch=0;fontFamily=Helvetica;fontSize=15;fontColor=none;strokeColor=#CCCCCC;fillColor=#CCCCCC;gradientDirection=south;strokeWidth=3;imageBackground=default;noLabel=1;imageBorder=none;" vertex="1" parent="1">
          <mxGeometry x="353" y="276.5" width="20" height="20" as="geometry" />
        </mxCell>
        <mxCell id="OI_sCRz20BsgHnKaaoa2-28" value="" style="shape=actor;whiteSpace=wrap;html=1;hachureGap=4;pointerEvents=0;shadow=0;labelBackgroundColor=none;sketch=0;fontFamily=Helvetica;fontSize=15;fontColor=none;strokeColor=#B3B3B3;strokeWidth=2;fillColor=none;gradientDirection=south;" vertex="1" parent="1">
          <mxGeometry x="259" y="227.5" width="12" height="18" as="geometry" />
        </mxCell>
        <mxCell id="OI_sCRz20BsgHnKaaoa2-34" value="" style="shape=mxgraph.signs.transportation.airplane_2;html=1;pointerEvents=1;fillColor=#596780;strokeColor=none;verticalLabelPosition=bottom;verticalAlign=top;align=center;hachureGap=4;shadow=0;labelBackgroundColor=none;sketch=0;fontFamily=Helvetica;fontSize=14;fontColor=none;" vertex="1" parent="1">
          <mxGeometry x="400" y="282" width="16.1" height="9" as="geometry" />
        </mxCell>
      </root>
    </mxGraphModel>
  </diagram>
</mxfile>
